<?xml version="1.0" encoding="UTF-8"?>
<svg width="482px" height="516px" viewBox="0 0 482 516" version="1.1" xmlns="http://www.w3.org/2000/svg" xmlns:xlink="http://www.w3.org/1999/xlink">
    <!-- Generator: Sketch 58 (84663) - https://sketch.com -->
    <title>calendar</title>
    <desc>Created with Sketch.</desc>
    <g id="Page-1" stroke="none" stroke-width="1" fill="none" fill-rule="evenodd">
        <g id="calendar" transform="translate(2.066667, 2.000000)" fill="#999999" fill-rule="nonzero">
            <path d="M67.2666667,33.1333333 L67.2666667,8.53333333 C67.2666667,3.26211525 71.5287819,-1 76.8,-1 L136.533333,-1 C141.804551,-1 146.066667,3.26211525 146.066667,8.53333333 L146.066667,33.1333333 L331.8,33.1333333 L331.8,8.53333333 C331.8,3.26211525 336.062115,-1 341.333333,-1 L401.066667,-1 C406.337885,-1 410.6,3.26211525 410.6,8.53333333 L410.6,33.1333333 L469.333333,33.1333333 C474.604551,33.1333333 478.866667,37.3954486 478.866667,42.6666667 L478.866667,503.466667 C478.866667,508.737885 474.604551,513 469.333333,513 L8.53333333,513 C3.26211525,513 -1,508.737885 -1,503.466667 L-1,42.6666667 C-1,37.3954486 3.26211525,33.1333333 8.53333333,33.1333333 L67.2666667,33.1333333 Z M350.866667,18.0666667 L350.866667,67.2666667 L391.533333,67.2666667 L391.533333,18.0666667 L350.866667,18.0666667 Z M86.3333333,18.0666667 L86.3333333,67.2666667 L127,67.2666667 L127,18.0666667 L86.3333333,18.0666667 Z M18.0666667,52.2 L18.0666667,127 L459.8,127 L459.8,52.2 L410.6,52.2 L410.6,76.8 C410.6,82.0712181 406.337885,86.3333333 401.066667,86.3333333 L341.333333,86.3333333 C336.062115,86.3333333 331.8,82.0712181 331.8,76.8 L331.8,52.2 L146.066667,52.2 L146.066667,76.8 C146.066667,82.0712181 141.804551,86.3333333 136.533333,86.3333333 L76.8,86.3333333 C71.5287819,86.3333333 67.2666667,82.0712181 67.2666667,76.8 L67.2666667,52.2 L18.0666667,52.2 Z M18.0666667,493.933333 L459.8,493.933333 L459.8,146.066667 L18.0666667,146.066667 L18.0666667,493.933333 Z" id="Shape" stroke="#979797" stroke-width="2"></path>
            <path d="M307.2,196.266667 L247.466667,196.266667 L230.4,196.266667 L170.666667,196.266667 L153.6,196.266667 L76.8,196.266667 L76.8,273.066667 L76.8,290.133333 L76.8,349.866667 L76.8,366.933333 L76.8,443.733333 L153.6,443.733333 L170.666667,443.733333 L230.4,443.733333 L247.466667,443.733333 L307.2,443.733333 L324.266667,443.733333 L401.066667,443.733333 L401.066667,366.933333 L401.066667,349.866667 L401.066667,290.133333 L401.066667,273.066667 L401.066667,196.266667 L324.266667,196.266667 L307.2,196.266667 Z M247.466667,213.333333 L307.2,213.333333 L307.2,273.066667 L247.466667,273.066667 L247.466667,213.333333 Z M307.2,349.866667 L247.466667,349.866667 L247.466667,290.133333 L307.2,290.133333 L307.2,349.866667 Z M170.666667,290.133333 L230.4,290.133333 L230.4,349.866667 L170.666667,349.866667 L170.666667,290.133333 Z M170.666667,213.333333 L230.4,213.333333 L230.4,273.066667 L170.666667,273.066667 L170.666667,213.333333 Z M93.8666667,213.333333 L153.6,213.333333 L153.6,273.066667 L93.8666667,273.066667 L93.8666667,213.333333 Z M93.8666667,290.133333 L153.6,290.133333 L153.6,349.866667 L93.8666667,349.866667 L93.8666667,290.133333 Z M153.6,426.666667 L93.8666667,426.666667 L93.8666667,366.933333 L153.6,366.933333 L153.6,426.666667 Z M230.4,426.666667 L170.666667,426.666667 L170.666667,366.933333 L230.4,366.933333 L230.4,426.666667 Z M307.2,426.666667 L247.466667,426.666667 L247.466667,366.933333 L307.2,366.933333 L307.2,426.666667 Z M384,426.666667 L324.266667,426.666667 L324.266667,366.933333 L384,366.933333 L384,426.666667 Z M384,349.866667 L324.266667,349.866667 L324.266667,290.133333 L384,290.133333 L384,349.866667 Z M384,213.333333 L384,273.066667 L324.266667,273.066667 L324.266667,213.333333 L384,213.333333 Z" id="Shape"></path>
        </g>
    </g>
</svg>