<?xml version="1.0" encoding="UTF-8"?>
<svg width="514px" height="514px" viewBox="0 0 514 514" version="1.1" xmlns="http://www.w3.org/2000/svg" xmlns:xlink="http://www.w3.org/1999/xlink">
    <!-- Generator: Sketch 58 (84663) - https://sketch.com -->
    <title>clock</title>
    <desc>Created with Sketch.</desc>
    <g id="Page-1" stroke="none" stroke-width="1" fill="none" fill-rule="evenodd">
        <g id="clock" transform="translate(1.000000, 1.000000)" fill="#999999" fill-rule="nonzero">
            <path d="M256,-0.5 C397.432142,-0.5 512.5,114.567858 512.5,256 C512.5,397.432142 397.432142,512.5 256,512.5 C114.567858,512.5 -0.5,397.432142 -0.5,256 C-0.5,114.567858 114.567858,-0.5 256,-0.5 Z M267.167,489.602272 C387.359545,483.894404 483.894391,387.359861 489.603268,267.167 L458.667,267.167 C452.494858,267.167 447.5,262.172142 447.5,256 C447.5,249.827858 452.494858,244.833 458.667,244.833 L489.603268,244.833 C483.894417,124.639666 387.360067,28.1056155 267.167,22.3967319 L267.167,53.333 C267.167,59.5051424 262.172142,64.5 256,64.5 C249.827858,64.5 244.833,59.5051424 244.833,53.333 L244.833,22.3967317 C124.639666,28.1055826 28.1056155,124.639933 22.3967319,244.833 L53.333,244.833 C59.5051424,244.833 64.5,249.827858 64.5,256 C64.5,262.172318 59.5049479,267.167047 53.333,267.166 L22.3967317,267.166 C28.1055826,387.359334 124.639933,483.893385 244.833,489.602268 L244.833,458.666 C244.833,452.493858 249.827858,447.499 256,447.499 C262.172142,447.499 267.167,452.493858 267.167,458.666 L267.167,489.602272 Z" id="Shape" stroke="#979797"></path>
            <path d="M276.281,261.198 C276.722,259.491 277.333,257.843 277.333,256 C277.333,251.535 275.635,247.618 273.28,244.189 L340.333,100.511 C342.823,95.178 340.521,88.823 335.177,86.334 C329.854,83.885 323.5,86.167 321,91.49 L253.995,235.073 C243.219,236.136 234.667,244.951 234.667,256 C234.667,267.76 244.24,277.333 256,277.333 C257.842,277.333 259.491,276.722 261.198,276.281 L344.458,359.541 C346.541,361.624 349.271,362.666 352,362.666 C354.729,362.666 357.458,361.624 359.542,359.541 C363.709,355.374 363.709,348.624 359.542,344.458 L276.281,261.198 Z" id="Path"></path>
        </g>
    </g>
</svg>